<svg width="1342" height="560" viewBox="0 0 1342 560" fill="none" xmlns="http://www.w3.org/2000/svg">
<path d="M13.5001 498C11.5001 556 83.6668 551.5 120 542H309.5C392.5 542 423.5 394 493.5 378.5C563.5 363 1075.5 583.5 1207.5 542C1339.5 500.5 1322 228 1329.5 142.5C1335.5 74.1 1283.67 91.3334 1257 108.5C1231 129.333 1170.7 148.6 1137.5 59.0001C1096 -52.9999 883 64.5001 891 108.5C897.4 143.7 834.667 164.833 802.5 171C626.833 194.333 322.7 273 283.5 279C244.3 285 267.167 316.167 283.5 331C302.5 366.5 265.8 409.1 195 417.5C106.5 428 91.5001 371 44.5001 360.5C-2.49986 350 16.0001 425.5 13.5001 498Z" stroke="#B94335" stroke-opacity="0.6" stroke-width="23"/>
</svg>
