<?xml version="1.0" encoding="UTF-8"?>
<svg id="Calque_2" data-name="Calque 2" xmlns="http://www.w3.org/2000/svg" viewBox="0 0 916.24 384.84">
  <defs>
    <style>
      .cls-1 {
        fill: #02563d;
      }

      .cls-2 {
        fill: #b94335;
      }
    </style>
  </defs>
  <g id="Calque_1-2" data-name="Calque 1">
    <g>
      <g>
        <path d="M154.07,271.39c-15.38-14.29-23.07-34.64-23.07-61.05s7.56-48.05,22.69-62.43c15.12-14.37,37.48-21.56,67.07-21.56,9.53,0,18.18,.71,25.95,2.13,7.77,1.42,15.58,3.55,23.44,6.39v41.12c-14.38-6.35-29.75-9.53-46.13-9.53-15.38,0-26.7,3.51-33.97,10.53-7.27,7.02-10.91,18.14-10.91,33.34s3.8,25.45,11.41,32.22c7.6,6.77,18.93,10.15,33.97,10.15,16.55,0,31.92-3.09,46.13-9.28v41.37c-15.54,5.35-32.09,8.02-49.64,8.02-29.25,0-51.56-7.15-66.94-21.44Z"/>
        <path d="M307.88,275.9c-13.96-11.28-20.93-27.2-20.93-47.76v-99.28h47.13v94.27c0,19.72,9.78,29.58,29.33,29.58s29.08-9.86,29.08-29.58v-94.27h47.13v99.28c0,13.71-3.18,25.41-9.53,35.1-6.35,9.7-15.29,17.05-26.83,22.06-11.53,5.01-24.82,7.52-39.86,7.52-23.07,0-41.58-5.64-55.53-16.92Z"/>
        <path d="M460.94,128.86h83.99c19.05,0,33.43,5.18,43.12,15.54,9.69,10.37,14.54,24.32,14.54,41.87,0,10.7-2.68,20.18-8.02,28.46-5.35,8.27-12.62,14.67-21.81,19.18,1.84,1.5,3.42,3.26,4.76,5.26,1.34,2.01,2.84,4.93,4.51,8.78l18.55,42.37h-49.14l-17.05-38.86c-1.34-3.01-2.97-5.14-4.89-6.39-1.92-1.25-4.64-1.88-8.15-1.88h-13.29v47.13h-47.13V128.86Zm71.96,78.22c6.85,0,12.16-1.79,15.92-5.39,3.76-3.59,5.64-8.73,5.64-15.42,0-14.2-6.69-21.31-20.06-21.31h-26.33v42.12h24.82Z"/>
        <path d="M598.84,128.86h49.14l37.61,106.8,37.61-106.8h49.39l-61.93,161.46h-49.89l-61.93-161.46Z"/>
        <path d="M790.13,128.86h122.35v36.1h-75.21v26.33h65.94v36.6h-65.94v26.33h75.21v36.1h-122.35V128.86Z"/>
      </g>
      <path class="cls-1" d="M100.5,209.43c0-36.5,10.13-64.39,30.4-83.65,20.27-19.26,50.22-28.89,89.86-28.89V0C154.68,0,101.15,19.02,61.67,56.54,33.54,83.27,0,132.13,0,213.04l100.5-3.61Z"/>
      <path class="cls-2" d="M207.36,83.86c-36.58,2.08-65.37,12.89-85.7,32.21-20.41,19.4-31.87,46.41-34.15,80.42l.17,13.4,12.81-.46c0-36.5,10.13-64.39,30.4-83.65,20.27-19.26,50.22-28.89,89.86-28.89v-13.03h-13.4Z"/>
    </g>
  </g>
</svg>